HIERARCHY
ROOT Hips
{
	OFFSET 0.000000 0.000000 0.000000
	CHANNELS 6 Xposition Yposition Zposition Zrotation Yrotation Xrotation 
	JOINT LowerBack
	{
		OFFSET 0.000000 0.000000 0.000000
		CHANNELS 3 Zrotation Yrotation Xrotation
		JOINT Spine
		{
			OFFSET 0.028270 2.035590 -0.193380
			CHANNELS 3 Zrotation Yrotation Xrotation
			JOINT Spine1
			{
				OFFSET 0.056720 2.048850 -0.042750
				CHANNELS 3 Zrotation Yrotation Xrotation
				JOINT Neck
				{
					OFFSET 0.000000 0.000000 0.000000
					CHANNELS 3 Zrotation Yrotation Xrotation
					JOINT Neck1
					{
						OFFSET -0.054170 1.746240 0.172020
						CHANNELS 3 Zrotation Yrotation Xrotation
						JOINT Head
						{
							OFFSET 0.104070 1.761360 -0.123970
							CHANNELS 3 Zrotation Yrotation Xrotation
							End Site
							{
								OFFSET 0.000000 0.000000 0.000000
							}
						}
					}
				}
				JOINT LeftShoulder
				{
					OFFSET 0.000000 0.000000 0.000000
					CHANNELS 3 Zrotation Yrotation Xrotation
					JOINT LeftArm
					{
						OFFSET 3.362410 1.200890 -0.311210
						CHANNELS 3 Zrotation Yrotation Xrotation
						JOINT LeftForeArm
						{
							OFFSET 4.983000 -0.000000 -0.000000
							CHANNELS 3 Zrotation Yrotation Xrotation
							JOINT LeftHand
							{
								OFFSET 3.483560 -0.000000 -0.000000
								CHANNELS 3 Zrotation Yrotation Xrotation
								JOINT LeftFingerBase
								{
									OFFSET 0.000000 0.000000 0.000000
									CHANNELS 3 Zrotation Yrotation Xrotation
									JOINT LeftHandIndex1
									{
										OFFSET 0.715260 -0.000000 -0.000000
										CHANNELS 3 Zrotation Yrotation Xrotation
										End Site
										{
											OFFSET 0.000000 0.000000 0.000000
										}
									}
								}
								JOINT LThumb
								{
									OFFSET 0.000000 0.000000 0.000000
									CHANNELS 3 Zrotation Yrotation Xrotation
									End Site
									{
										OFFSET 0.000000 0.000000 0.000000
									}
								}
							}
						}
					}
				}
				JOINT RightShoulder
				{
					OFFSET 0.000000 0.000000 0.000000
					CHANNELS 3 Zrotation Yrotation Xrotation
					JOINT RightArm
					{
						OFFSET -3.136600 1.374050 -0.404650
						CHANNELS 3 Zrotation Yrotation Xrotation
						JOINT RightForeArm
						{
							OFFSET -5.241900 -0.000000 -0.000000
							CHANNELS 3 Zrotation Yrotation Xrotation
							JOINT RightHand
							{
								OFFSET -3.444170 -0.000000 -0.000000
								CHANNELS 3 Zrotation Yrotation Xrotation
								JOINT RightFingerBase
								{
									OFFSET 0.000000 0.000000 0.000000
									CHANNELS 3 Zrotation Yrotation Xrotation
									JOINT RightHandIndex1
									{
										OFFSET -0.622530 -0.000000 -0.000000
										CHANNELS 3 Zrotation Yrotation Xrotation
										End Site
										{
											OFFSET 0.000000 0.000000 0.000000
										}
									}
								}
								JOINT RThumb
								{
									OFFSET 0.000000 0.000000 0.000000
									CHANNELS 3 Zrotation Yrotation Xrotation
									End Site
									{
										OFFSET 0.000000 0.000000 0.000000
									}
								}
							}
						}
					}
				}
			}
		}
	}
}
}
MOTION
Frames: 9
Frame Time: 0.008333
2.169436 16.967555 -2.732357 -176.634001 53.314527 -157.375989 -2.590537 1.471340 9.033094 -1.816179 1.645821 -1.069909 -7.377225 1.586188 1.168271 11.911824 6.486080 4.691967 -4.547481 -0.403555 2.762776 0.000000 0.000000 0.000000 -7.825175 2.073232 1.221250 -65.656632 -3.984165 10.902037 -3.011601 -24.520831 -0.001016 2.640547 1.374483 0.032565 -0.057465 0.003651 -0.000000 0.000000 0.000000 0.000000 0.000000 0.000000 0.000000 21.087790 5.213405 -0.217780 62.440878 27.168658 0.930955 3.145161 25.210266 0.011880 4.590440 8.357472 0.338824 0.019637 -0.105914 0.000000 0.000000 0.000000 0.000000 0.000000 0.000000 0.000000 
2.253065 16.969637 -2.825371 -177.126911 53.381920 -157.848907 -3.245407 1.418237 9.142909 -1.966334 1.605941 -1.068476 -7.453361 1.547785 1.109395 12.066572 6.424225 4.737653 -4.584776 -0.405714 2.767800 0.000000 0.000000 0.000000 -7.619747 1.777218 1.254160 -65.478824 -4.193893 10.856795 -3.053536 -24.149315 -0.001116 2.646621 1.428843 0.033865 -0.057992 0.004310 -0.000000 0.000000 0.000000 0.000000 0.000000 0.000000 0.000000 21.399864 5.076563 -0.267095 63.318951 26.323157 0.621709 3.107939 24.984130 0.011517 4.558736 8.426651 0.339223 0.018013 -0.104845 0.000000 0.000000 0.000000 0.000000 0.000000 0.000000 0.000000 
2.332675 16.975214 -2.918103 -177.624203 53.439994 -158.313559 -3.853945 1.369741 9.257566 -2.103235 1.569082 -1.063757 -7.509870 1.512258 1.046380 12.140829 6.394411 4.810344 -4.610084 -0.407416 2.779823 0.000000 0.000000 0.000000 -7.445388 1.426673 1.285905 -65.309908 -4.451235 10.815782 -3.094582 -23.745877 -0.001250 2.634098 1.508286 0.035565 -0.058418 0.005250 -0.000000 0.000000 0.000000 0.000000 0.000000 0.000000 0.000000 21.576443 4.970135 -0.320292 64.205718 25.443615 0.201034 3.064396 24.731569 0.011122 4.468658 8.508618 0.335819 0.016712 -0.104087 0.000000 0.000000 0.000000 0.000000 0.000000 0.000000 0.000000 
2.407889 16.983600 -3.010952 -178.106240 53.498151 -158.762150 -4.404815 1.327398 9.378910 -2.225187 1.536974 -1.052453 -7.549332 1.481756 0.991373 12.128758 6.371767 4.898253 -4.628254 -0.408789 2.795405 0.000000 0.000000 0.000000 -7.304711 1.061012 1.312156 -65.154070 -4.792302 10.796014 -3.134971 -23.305707 -0.001419 2.601322 1.610940 0.037565 -0.058796 0.006502 -0.000000 0.000000 0.000000 0.000000 0.000000 0.000000 0.000000 21.635221 4.867325 -0.377237 65.079345 24.584976 -0.248295 3.020458 24.430162 0.010722 4.328419 8.598743 0.328616 0.015952 -0.103368 0.000000 0.000000 0.000000 0.000000 0.000000 0.000000 0.000000 
2.478223 16.994100 -3.104660 -178.527112 53.562962 -159.163612 -4.869827 1.292754 9.504070 -2.326700 1.511013 -1.035654 -7.574074 1.457510 0.943870 12.024932 6.371650 5.005356 -4.640468 -0.409917 2.815831 0.000000 0.000000 0.000000 -7.208329 0.690641 1.333179 -65.011693 -5.204452 10.791802 -3.173316 -22.851762 -0.001618 2.549030 1.736292 0.039565 -0.059093 0.008052 -0.000000 0.000000 0.000000 0.000000 0.000000 0.000000 0.000000 21.573651 4.785192 -0.436333 65.927466 23.737180 -0.726484 2.980457 24.091819 0.010349 4.177705 8.671571 0.319812 0.015616 -0.102444 0.000000 0.000000 0.000000 0.000000 0.000000 0.000000 0.000000 
2.543602 17.006082 -3.199621 -178.861874 53.639790 -159.504618 -5.235678 1.265714 9.631409 -2.405603 1.491287 -1.013292 -7.587533 1.439645 0.907214 11.831494 6.393635 5.128881 -4.649904 -0.410926 2.840351 0.000000 0.000000 0.000000 -7.159501 0.335156 1.348344 -64.881717 -5.688902 10.804336 -3.209103 -22.399747 -0.001840 2.480604 1.878639 0.041667 -0.059325 0.009897 -0.000000 0.000000 0.000000 0.000000 0.000000 0.000000 0.000000 21.407414 4.723088 -0.496357 66.733078 22.912684 -1.209024 2.949026 23.718821 0.010034 4.049169 8.704648 0.311110 0.015658 -0.101069 0.000000 0.000000 0.000000 0.000000 0.000000 0.000000 0.000000 
2.604301 17.018948 -3.296104 -179.097990 53.731216 -159.780446 -5.498775 1.244781 9.759316 -2.461872 1.476616 -0.985263 -7.593748 1.427047 0.884873 11.556379 6.429879 5.263342 -4.660545 -0.411957 2.867412 0.000000 0.000000 0.000000 -7.156182 0.010145 1.357134 -64.761767 -6.243508 10.829595 -3.241966 -21.967507 -0.002073 2.401523 2.029968 0.043570 -0.059512 0.012023 -0.000000 0.000000 0.000000 0.000000 0.000000 0.000000 0.000000 21.162247 4.671579 -0.555773 67.478182 22.131000 -1.663719 2.930274 23.307679 0.009800 3.969292 8.676796 0.303806 0.016059 -0.099021 0.000000 0.000000 0.000000 0.000000 0.000000 0.000000 0.000000 
2.660649 17.032282 -3.394238 -179.225347 53.835479 -159.985987 -5.656358 1.227460 9.885335 -2.495407 1.464711 -0.952839 -7.596099 1.417304 0.875538 11.211561 6.493714 5.408591 -4.673678 -0.413049 2.897000 0.000000 0.000000 0.000000 -7.197376 -0.269418 1.361471 -64.646576 -6.864621 10.872611 -3.271899 -21.568523 -0.002307 2.322227 2.178400 0.045274 -0.059715 0.014454 -0.000000 0.000000 0.000000 0.000000 0.000000 0.000000 0.000000 20.854800 4.644975 -0.613833 68.152371 21.377837 -2.111935 2.925803 22.876648 0.009646 3.972755 8.562891 0.299999 0.016601 -0.096124 0.000000 0.000000 0.000000 0.000000 0.000000 0.000000 0.000000 
2.713410 17.045761 -3.493845 -179.256902 53.948083 -160.133737 -5.722746 1.210480 10.008455 -2.510024 1.452719 -0.915725 -7.598695 1.407707 0.882433 10.814520 6.562786 5.554684 -4.693739 -0.414335 2.926292 0.000000 0.000000 0.000000 -7.271648 -0.499169 1.360757 -64.533012 -7.544682 10.921729 -3.298771 -21.220759 -0.002533 2.251496 2.312801 0.046581 -0.059952 0.017153 -0.000000 0.000000 0.000000 0.000000 0.000000 0.000000 0.000000 20.523445 4.617234 -0.668651 68.739262 20.685304 -2.511495 2.937622 22.413420 0.009562 4.064606 8.353858 0.299291 0.017327 -0.092253 0.000000 0.000000 0.000000 0.000000 0.000000 0.000000 0.000000 
